<?xml version="1.0" encoding="utf-8"?>
<!-- Generator: Adobe Illustrator 16.0.0, SVG Export Plug-In . SVG Version: 6.00 Build 0)  -->
<!DOCTYPE svg PUBLIC "-//W3C//DTD SVG 1.1//EN" "http://www.w3.org/Graphics/SVG/1.1/DTD/svg11.dtd">
<svg version="1.1"
	 id="svg2" sodipodi:docname="New document 1" inkscape:version="0.47 r22583" xmlns:dc="http://purl.org/dc/elements/1.1/" xmlns:cc="http://creativecommons.org/ns#" xmlns:rdf="http://www.w3.org/1999/02/22-rdf-syntax-ns#" xmlns:svg="http://www.w3.org/2000/svg" xmlns:sodipodi="http://sodipodi.sourceforge.net/DTD/sodipodi-0.dtd" xmlns:inkscape="http://www.inkscape.org/namespaces/inkscape"
	 xmlns="http://www.w3.org/2000/svg" xmlns:xlink="http://www.w3.org/1999/xlink" x="0px" y="0px" width="393.977px"
	 height="363.422px" viewBox="0 0 393.977 363.422" enable-background="new 0 0 393.977 363.422" xml:space="preserve">
<defs>
	
	
		<inkscape:perspective  id="perspective10" inkscape:persp3d-origin="372.04724 : 350.78739 : 1" sodipodi:type="inkscape:persp3d" inkscape:vp_z="744.09448 : 526.18109 : 1" inkscape:vp_y="0 : 1000 : 0" inkscape:vp_x="0 : 526.18109 : 1">
		</inkscape:perspective>
</defs>
<sodipodi:namedview  id="base" inkscape:window-y="-4" inkscape:window-x="-4" inkscape:window-height="744" inkscape:window-width="1280" inkscape:current-layer="layer1" inkscape:document-units="px" inkscape:pageshadow="2" inkscape:pageopacity="0.0" pagecolor="#ffffff" inkscape:cy="270.66264" inkscape:cx="276.85688" inkscape:zoom="0.47417135" showgrid="false" borderopacity="1.0" bordercolor="#666666" inkscape:window-maximized="1">
	</sodipodi:namedview>
<g id="layer1" transform="translate(-95.190366,-433.42145)" inkscape:label="Layer 1" inkscape:groupmode="layer">
	
		<rect id="rect2816" x="177.143" y="520.933" transform="matrix(-0.7071 -0.7071 0.7071 -0.7071 48.3331 1290.4583)" fill="#B9E5FB" width="228.572" height="228.572"/>
	
		<path id="path2820" sodipodi:ry="117.14286" sodipodi:rx="117.14286" sodipodi:cy="400.93362" sodipodi:cx="294.28571" sodipodi:type="arc" fill="#B9E5FB" d="
		M329.476,552.064c0,64.697-52.446,117.143-117.143,117.143c-64.696,0-117.143-52.446-117.143-117.143
		c0-64.696,52.447-117.143,117.143-117.143C277.029,434.921,329.476,487.368,329.476,552.064z"/>
	
		<path id="path2822" sodipodi:ry="117.14286" sodipodi:rx="117.14286" sodipodi:cy="400.93362" sodipodi:cx="294.28571" sodipodi:type="arc" fill="#B9E5FB" d="
		M489.167,550.564c0,64.696-52.447,117.142-117.143,117.142c-64.696,0-117.143-52.446-117.143-117.142
		s52.447-117.143,117.143-117.143C436.72,433.421,489.167,485.868,489.167,550.564z"/>
</g>
</svg>
