<?xml version="1.0" encoding="utf-8"?>
<!-- Generator: Adobe Illustrator 16.0.0, SVG Export Plug-In . SVG Version: 6.00 Build 0)  -->
<!DOCTYPE svg PUBLIC "-//W3C//DTD SVG 1.1//EN" "http://www.w3.org/Graphics/SVG/1.1/DTD/svg11.dtd">
<svg version="1.1"
	 id="svg2" inkscape:version="0.47 r22583" sodipodi:docname="New document 1" xmlns:dc="http://purl.org/dc/elements/1.1/" xmlns:cc="http://creativecommons.org/ns#" xmlns:rdf="http://www.w3.org/1999/02/22-rdf-syntax-ns#" xmlns:svg="http://www.w3.org/2000/svg" xmlns:sodipodi="http://sodipodi.sourceforge.net/DTD/sodipodi-0.dtd" xmlns:inkscape="http://www.inkscape.org/namespaces/inkscape"
	 xmlns="http://www.w3.org/2000/svg" xmlns:xlink="http://www.w3.org/1999/xlink" x="0px" y="0px" width="393.977px"
	 height="363.422px" viewBox="0 0 393.977 363.422" enable-background="new 0 0 393.977 363.422" xml:space="preserve">
<defs>
	
	
		<inkscape:perspective  id="perspective10" inkscape:persp3d-origin="372.04724 : 350.78739 : 1" inkscape:vp_x="0 : 526.18109 : 1" inkscape:vp_y="0 : 1000 : 0" inkscape:vp_z="744.09448 : 526.18109 : 1" sodipodi:type="inkscape:persp3d">
		</inkscape:perspective>
</defs>
<sodipodi:namedview  id="base" inkscape:pageopacity="0.0" inkscape:pageshadow="2" inkscape:document-units="px" inkscape:current-layer="layer1" inkscape:window-width="1280" inkscape:window-height="744" inkscape:window-x="-4" inkscape:window-y="-4" inkscape:cy="270.66264" pagecolor="#ffffff" bordercolor="#666666" borderopacity="1.0" showgrid="false" inkscape:zoom="0.47417135" inkscape:cx="276.85688" inkscape:window-maximized="1">
	</sodipodi:namedview>
<g id="layer1" transform="translate(-95.190366,-433.42145)" inkscape:groupmode="layer" inkscape:label="Layer 1">
	
		<rect id="rect2816" x="177.142" y="520.941" transform="matrix(0.7071 0.7071 -0.7071 0.7071 534.5293 -20.0167)" fill="#D22F27" width="228.57" height="228.57"/>
	
		<path id="path2820" sodipodi:cx="294.28571" sodipodi:cy="400.93362" sodipodi:rx="117.14286" sodipodi:ry="117.14286" sodipodi:type="arc" fill="#D22F27" d="
		M329.476,552.064c0,64.697-52.445,117.143-117.143,117.143c-64.696,0-117.144-52.445-117.144-117.143
		c0-64.696,52.447-117.143,117.144-117.143S329.476,487.368,329.476,552.064z"/>
	
		<path id="path2822" sodipodi:cx="294.28571" sodipodi:cy="400.93362" sodipodi:rx="117.14286" sodipodi:ry="117.14286" sodipodi:type="arc" fill="#D22F27" d="
		M489.167,550.564c0,64.696-52.447,117.143-117.144,117.143c-64.695,0-117.143-52.446-117.143-117.143
		c0-64.696,52.447-117.143,117.143-117.143C436.72,433.421,489.167,485.868,489.167,550.564z"/>
</g>
</svg>
